<svg width="512" height="512" viewBox="0 0 512 512" fill="none" xmlns="http://www.w3.org/2000/svg">
  <defs>
    <linearGradient id="bg" x1="60" y1="30" x2="440" y2="480" gradientUnits="userSpaceOnUse">
      <stop stop-color="#8D7BFF"/>
      <stop offset="1" stop-color="#5337D6"/>
    </linearGradient>
    <linearGradient id="shine" x1="160" y1="140" x2="410" y2="410" gradientUnits="userSpaceOnUse">
      <stop stop-color="#FFFFFF" stop-opacity="0.9"/>
      <stop offset="1" stop-color="#FFFFFF" stop-opacity="0.2"/>
    </linearGradient>
  </defs>
  <rect width="512" height="512" rx="256" fill="url(#bg)"/>
  <circle cx="256" cy="256" r="200" fill="url(#shine)" fill-opacity="0.12"/>
  <path d="M158 350L225 132H286L354 350H306L289 304H223L206 350H158ZM236 264H276L260 206L236 264Z" fill="white"/>
  <path d="M192 170H320L298 208H214L192 170Z" fill="#D8D2FF" fill-opacity="0.9"/>
  <path d="M214 388C214 362 235 342 261 342C287 342 308 362 308 388V402H214V388Z" fill="#D8D2FF" fill-opacity="0.9"/>
  <circle cx="357" cy="166" r="22" fill="#B8F3D6"/>
  <path d="M343 166H370" stroke="#2D2E5A" stroke-width="8" stroke-linecap="round"/>
  <path d="M357 152V179" stroke="#2D2E5A" stroke-width="8" stroke-linecap="round"/>
  <circle cx="150" cy="328" r="18" fill="#FFD7E8"/>
</svg>
